<svg width="1280" height="720" xmlns="http://www.w3.org/2000/svg" xmlns:xlink="http://www.w3.org/1999/xlink" overflow="hidden"><defs><clipPath id="clip0"><rect x="0" y="0" width="1280" height="720"/></clipPath><clipPath id="clip1"><rect x="311" y="77" width="658" height="566"/></clipPath><clipPath id="clip2"><rect x="311" y="77" width="658" height="566"/></clipPath><clipPath id="clip3"><rect x="311" y="77" width="658" height="566"/></clipPath><linearGradient x1="64.0921" y1="122.055" x2="148.372" y2="50.999" gradientUnits="userSpaceOnUse" spreadMethod="pad" id="fill4"><stop offset="0" stop-color="#217BFE"/><stop offset="0.27" stop-color="#078EFB"/><stop offset="0.777" stop-color="#A190FF"/><stop offset="1" stop-color="#BD99FE"/></linearGradient></defs><g clip-path="url(#clip0)"><rect x="0" y="0" width="1280" height="720" fill="#FFFFFF"/><g clip-path="url(#clip1)"><g clip-path="url(#clip2)"><g clip-path="url(#clip3)"><path d="M455.051 563.66 360.447 563.66 461.393 19.2908 519.265 19.2908C544.105 19.2908 563.132 41.2241 559.696 65.5357L495.746 528.514C492.839 548.862 475.398 563.66 455.051 563.66Z" fill="#34A853" transform="matrix(1 0 0 1.00087 311 77.2645)"/><path d="M260.822 53.6442C263.464 33.2964 280.905 18.2337 301.253 18.2337L484.912 18.2337C509.488 18.2337 528.514 39.9028 525.343 64.4787L463.243 529.043C460.6 549.39 443.159 564.453 422.811 564.453L239.153 564.453C214.577 564.453 195.55 542.784 198.721 518.208L260.822 53.6442Z" fill="#FFFFFF" transform="matrix(1 0 0 1.00087 311 77.2645)"/><path d="M257.651 56.2867C260.557 34.6177 279.055 18.498 300.725 18.498L455.579 18.498C457.165 18.498 458.486 19.8193 458.486 21.4048 458.486 22.9904 457.165 24.3116 455.579 24.3116L300.725 24.3116C281.698 24.3116 265.578 38.3173 262.936 57.0795L262.936 57.0795 200.835 515.301C197.664 538.027 215.369 558.375 238.624 558.375L404.049 558.375C405.635 558.375 406.956 559.696 406.956 561.282 406.956 562.867 405.635 564.189 404.049 564.189L238.36 564.189C211.934 564.189 191.586 540.934 195.286 514.773L257.651 56.2867 257.651 56.2867Z" fill="#AECBFA" fill-rule="evenodd" transform="matrix(1 0 0 1.00087 311 77.2645)"/><path d="M398.5 57.3438C402.992 57.3438 406.956 53.6442 406.956 48.8876 406.956 44.3952 403.256 40.4313 398.5 40.4313 394.007 40.4313 390.043 44.1309 390.043 48.8876 390.308 53.6442 394.007 57.3438 398.5 57.3438Z" fill="#4285F4" transform="matrix(1 0 0 1.00087 311 77.2645)"/><path d="M531.685 186.83C528.25 186.301 524.814 188.68 524.55 192.379L517.944 240.474C517.415 243.909 519.794 247.345 523.493 247.609 526.928 248.137 530.364 245.759 530.628 242.059L537.235 193.965C537.499 190.529 535.385 187.358 531.685 186.83ZM520.322 191.851C521.115 186.037 526.4 182.073 532.214 182.866 538.027 183.659 541.991 188.944 541.198 194.757L534.592 242.852C533.799 248.666 528.514 252.63 522.7 251.837 516.887 251.044 512.923 245.759 513.716 239.945L520.322 191.851Z" fill="#0D652D" fill-rule="evenodd" transform="matrix(1 0 0 1.00087 311 77.2645)"/><path d="M519.794 272.449C516.358 271.92 512.923 274.299 512.659 277.998L498.653 378.68C498.124 382.116 500.503 385.551 504.202 385.815 507.638 386.344 511.073 383.965 511.337 380.266L525.343 279.584C525.871 276.149 523.493 272.978 519.794 272.449ZM508.431 277.47C509.223 271.656 514.508 267.692 520.322 268.485 526.136 269.278 530.1 274.563 529.307 280.377L515.301 381.059C514.508 386.872 509.223 390.836 503.41 390.043 497.596 389.251 493.632 383.965 494.425 378.152L508.431 277.47Z" fill="#0D652D" fill-rule="evenodd" transform="matrix(1 0 0 1.00087 311 77.2645)"/><path d="M258.708 538.027C274.299 538.027 287.247 525.079 287.247 508.959 287.247 492.839 274.563 479.891 258.708 479.891 242.852 479.891 230.168 492.839 230.168 508.959 230.168 525.079 243.116 538.027 258.708 538.027Z" fill="#D2E3FC" transform="matrix(1 0 0 1.00087 311 77.2645)"/><path d="M394.007 331.907C393.743 331.378 393.743 330.85 393.743 330.321 393.214 326.886 392.422 323.715 391.629 320.544 390.308 314.73 388.458 309.181 386.344 303.896 384.494 299.403 382.38 294.911 380.266 290.418 377.359 284.869 373.924 279.584 370.488 274.563 365.996 268.221 360.975 262.671 355.69 257.122 353.576 255.008 351.198 252.63 348.555 250.516 343.27 246.023 337.72 241.795 331.643 238.36 331.643 238.096 331.907 238.096 331.907 238.096 334.814 233.603 337.456 228.847 340.099 224.09 342.741 219.598 345.384 215.105 348.026 210.349 349.876 207.178 351.726 203.742 353.84 200.571 354.369 199.778 354.633 198.986 354.897 198.193 355.69 196.079 355.69 193.436 355.161 191.322 354.897 190.794 354.897 190.265 354.633 189.737 354.369 189.208 354.104 188.68 353.84 188.151 352.783 186.565 351.462 184.98 349.612 183.923 348.026 182.866 346.177 182.337 344.327 182.337 343.534 182.337 342.741 182.337 341.949 182.337 341.156 182.337 340.627 182.602 340.099 182.602 337.985 183.13 335.871 184.451 334.021 186.301 333.492 187.094 332.964 187.622 332.435 188.415 330.586 191.586 328.736 195.022 326.622 198.193L318.694 211.934C315.787 216.427 313.145 221.183 310.502 225.94 310.238 226.468 309.974 226.997 309.709 227.525 309.181 227.261 308.916 227.261 308.388 226.997 293.325 221.183 277.206 218.276 260.293 218.276 259.765 218.276 259.236 218.276 258.972 218.276 243.909 218.541 229.375 221.183 215.898 225.676 214.312 226.204 212.727 226.733 211.406 227.261 211.141 226.733 210.877 226.204 210.613 225.94 207.706 221.447 205.063 216.691 202.421 211.934 199.778 207.442 197.136 202.949 194.493 198.193 192.643 195.022 190.794 191.586 188.68 188.415 188.151 187.622 187.622 186.83 187.094 186.301 185.508 184.451 183.394 183.13 181.016 182.602 180.223 182.337 179.695 182.337 179.166 182.337 178.373 182.073 177.581 182.073 176.788 182.337 174.938 182.602 173.088 183.13 171.503 183.923 169.653 184.98 168.332 186.301 167.275 188.151 167.01 188.68 166.746 189.208 166.482 189.737 166.218 190.265 165.953 190.794 165.953 191.322 165.425 193.436 165.425 195.814 166.218 198.193 166.482 198.986 166.746 199.778 167.275 200.571 169.124 203.742 170.974 207.178 173.088 210.349 175.731 214.841 178.373 219.333 181.016 224.09 183.923 228.582 186.565 233.339 189.208 238.096L189.208 238.36C183.659 241.795 178.373 245.495 173.617 249.723 170.71 252.101 167.803 254.744 165.161 257.386 159.611 262.671 154.855 268.485 150.362 274.827 146.663 279.848 143.492 285.133 140.585 290.683 138.471 294.911 136.357 299.403 134.507 304.16 132.393 309.709 130.543 315.259 129.222 320.808 128.429 324.243 127.636 327.414 127.108 330.586 126.843 331.114 126.843 331.643 126.843 332.171 126.579 334.021 126.315 336.135 126.051 337.985L395.064 337.985C394.536 335.871 394.271 333.757 394.007 331.907L394.007 331.907Z" fill="#34A853" transform="matrix(1 0 0 1.00087 311 77.2645)"/><path d="M208.499 295.704C212.991 289.097 212.198 280.905 206.649 277.47 201.1 273.77 193.172 276.413 188.944 283.019 184.451 289.626 185.244 297.818 190.794 301.253 196.343 304.688 204.006 302.046 208.499 295.704Z" fill="#202124" transform="matrix(1 0 0 1.00087 311 77.2645)"/><path d="M323.451 229.904 374.452 275.092 396.121 337.72 260.293 337.72 260.293 218.541 318.958 227.79 346.705 182.866 350.933 185.244 323.451 229.904ZM318.958 232.546 265.05 224.09 265.05 332.435 388.986 332.435 369.96 277.47 318.958 232.546Z" fill="#4285F4" fill-rule="evenodd" transform="matrix(1 0 0 1.00087 311 77.2645)"/><path d="M347.498 192.643C350.933 192.643 353.84 189.737 353.84 186.301 353.84 182.866 350.933 179.959 347.498 179.959 344.063 179.959 341.156 182.866 341.156 186.301 341.156 189.737 343.798 192.643 347.498 192.643Z" fill="#D2E3FC" transform="matrix(1 0 0 1.00087 311 77.2645)"/><path d="M338.513 186.037C338.513 181.28 342.477 177.052 347.498 177.052 352.255 177.052 356.483 181.016 356.483 186.037 356.483 190.794 352.519 195.022 347.498 195.022 342.477 195.022 338.513 191.058 338.513 186.037ZM347.498 182.073C345.384 182.073 343.534 183.923 343.534 186.037 343.534 188.151 345.384 190.001 347.498 190.001 349.612 190.001 351.462 188.151 351.462 186.037 351.198 183.923 349.612 182.073 347.498 182.073Z" fill="#4285F4" fill-rule="evenodd" transform="matrix(1 0 0 1.00087 311 77.2645)"/><path d="M260.293 240.474 321.072 228.582 322.129 233.339 261.35 245.231 260.293 240.474Z" fill="#4285F4" fill-rule="evenodd" transform="matrix(1 0 0 1.00087 311 77.2645)"/><path d="M292.797 268.485 323.451 232.546 319.751 229.375 288.04 266.9 288.04 308.388 260.822 332.964 264.257 336.663 292.797 310.502 292.797 268.485Z" fill="#4285F4" fill-rule="evenodd" transform="matrix(1 0 0 1.00087 311 77.2645)"/><path d="M319.487 237.831C322.922 237.831 325.829 234.924 325.829 231.489 325.829 228.054 322.922 225.147 319.487 225.147 316.051 225.147 313.145 228.054 313.145 231.489 313.145 234.924 316.051 237.831 319.487 237.831Z" fill="#D2E3FC" transform="matrix(1 0 0 1.00087 311 77.2645)"/><path d="M310.766 231.225C310.766 226.468 314.73 222.24 319.751 222.24 324.772 222.24 328.736 226.204 328.736 231.225 328.736 236.246 324.772 240.21 319.751 240.21 314.73 240.21 310.766 236.246 310.766 231.225ZM319.487 227.261C317.373 227.261 315.523 229.111 315.523 231.225 315.523 233.339 317.373 235.189 319.487 235.189 321.601 235.189 323.451 233.339 323.451 231.225 323.715 229.111 321.865 227.261 319.487 227.261Z" fill="#4285F4" fill-rule="evenodd" transform="matrix(1 0 0 1.00087 311 77.2645)"/><path d="M292.004 307.859 392.157 332.7 391.1 337.456 290.947 312.616 292.004 307.859Z" fill="#4285F4" fill-rule="evenodd" transform="matrix(1 0 0 1.00087 311 77.2645)"/><path d="M289.361 315.787C292.797 315.787 295.704 312.88 295.704 309.445 295.704 306.01 292.797 303.103 289.361 303.103 285.926 303.103 283.019 306.01 283.019 309.445 283.019 312.88 285.926 315.787 289.361 315.787Z" fill="#D2E3FC" transform="matrix(1 0 0 1.00087 311 77.2645)"/><path d="M280.641 309.445C280.641 304.688 284.605 300.46 289.626 300.46 294.647 300.46 298.61 304.424 298.61 309.445 298.61 314.202 294.647 318.43 289.626 318.43 284.605 318.165 280.641 314.466 280.641 309.445ZM289.361 305.481C287.247 305.481 285.398 307.331 285.398 309.445 285.398 311.559 287.247 313.409 289.361 313.409 291.475 313.409 293.325 311.559 293.325 309.445 293.59 307.331 291.74 305.481 289.361 305.481Z" fill="#4285F4" fill-rule="evenodd" transform="matrix(1 0 0 1.00087 311 77.2645)"/><path d="M260.822 286.983 288.833 266.371 291.74 270.335 263.729 290.947 260.822 286.983Z" fill="#4285F4" fill-rule="evenodd" transform="matrix(1 0 0 1.00087 311 77.2645)"/><path d="M372.602 279.848 289.89 270.335 290.418 265.578 373.131 275.092 372.602 279.848Z" fill="#4285F4" fill-rule="evenodd" transform="matrix(1 0 0 1.00087 311 77.2645)"/><path d="M372.074 283.019C375.509 283.019 378.416 280.112 378.416 276.677 378.416 272.978 375.509 270.335 372.074 270.335 368.639 270.335 365.732 273.242 365.732 276.677 365.732 280.112 368.639 283.019 372.074 283.019Z" fill="#D2E3FC" transform="matrix(1 0 0 1.00087 311 77.2645)"/><path d="M363.089 276.677C363.089 271.92 367.053 267.692 372.074 267.692 376.831 267.692 381.059 271.656 381.059 276.677 381.059 281.698 377.095 285.662 372.074 285.662 367.053 285.398 363.089 281.434 363.089 276.677ZM372.074 272.713C369.96 272.713 368.11 274.563 368.11 276.677 368.11 278.791 369.96 280.641 372.074 280.641 374.188 280.641 376.038 278.791 376.038 276.677 376.038 274.563 374.188 272.713 372.074 272.713Z" fill="#4285F4" fill-rule="evenodd" transform="matrix(1 0 0 1.00087 311 77.2645)"/><path d="M290.418 265.314 394.007 333.757 391.365 337.72 288.04 269.278 290.418 265.314Z" fill="#4285F4" fill-rule="evenodd" transform="matrix(1 0 0 1.00087 311 77.2645)"/><path d="M392.422 340.099C395.857 340.099 398.764 337.192 398.764 333.757 398.764 330.321 395.857 327.414 392.422 327.414 388.986 327.414 386.08 330.321 386.08 333.757 386.08 337.192 388.986 340.099 392.422 340.099Z" fill="#D2E3FC" transform="matrix(1 0 0 1.00087 311 77.2645)"/><path d="M383.701 333.757C383.701 329 387.665 324.772 392.686 324.772 397.443 324.772 401.671 328.736 401.671 333.757 401.671 338.513 397.707 342.741 392.686 342.741 387.665 342.741 383.701 338.777 383.701 333.757ZM392.422 330.057C390.308 330.057 388.458 331.907 388.458 334.021 388.458 336.135 390.308 337.985 392.422 337.985 394.536 337.985 396.386 336.135 396.386 334.021 396.386 331.643 394.8 330.057 392.422 330.057Z" fill="#4285F4" fill-rule="evenodd" transform="matrix(1 0 0 1.00087 311 77.2645)"/><path d="M290.418 273.77C293.854 273.77 296.761 270.863 296.761 267.428 296.761 263.993 293.854 261.086 290.418 261.086 286.983 261.086 284.076 263.993 284.076 267.428 284.076 270.863 286.719 273.77 290.418 273.77Z" fill="#D2E3FC" transform="matrix(1 0 0 1.00087 311 77.2645)"/><path d="M281.434 267.428C281.434 262.671 285.398 258.443 290.418 258.443 295.175 258.443 299.403 262.407 299.403 267.428 299.403 272.185 295.439 276.413 290.418 276.413 285.662 276.413 281.434 272.449 281.434 267.428ZM290.418 263.464C288.304 263.464 286.455 265.314 286.455 267.428 286.455 269.542 288.304 271.392 290.418 271.392 292.533 271.392 294.382 269.542 294.382 267.428 294.382 265.314 292.533 263.464 290.418 263.464Z" fill="#4285F4" fill-rule="evenodd" transform="matrix(1 0 0 1.00087 311 77.2645)"/><path d="M339.57 93.2827C339.57 91.6972 340.892 90.3759 342.477 90.3759L408.013 90.3759C421.49 90.3759 432.589 101.475 432.589 114.952L432.589 180.488C432.589 182.073 431.267 183.394 429.682 183.394 428.096 183.394 426.775 182.073 426.775 180.488L426.775 114.952C426.775 104.646 418.319 95.9253 407.749 95.9253L342.213 95.9253C340.627 95.9253 339.57 94.604 339.57 93.2827Z" fill="#C6FF00" fill-rule="evenodd" transform="matrix(1 0 0 1.00087 311 77.2645)"/><path d="M98.0394 334.549C99.6249 334.549 100.946 335.871 100.946 337.456L100.946 402.992C100.946 413.298 109.402 422.018 119.973 422.018L185.508 422.018C187.094 422.018 188.415 423.34 188.415 424.925 188.415 426.511 187.094 427.832 185.508 427.832L119.708 427.832C106.231 427.832 95.1325 416.733 95.1325 403.256L95.1325 337.72C95.3968 335.871 96.7181 334.549 98.0394 334.549Z" fill="#C6FF00" fill-rule="evenodd" transform="matrix(1 0 0 1.00087 311 77.2645)"/><path d="M429.418 334.549C431.003 334.549 432.325 335.871 432.325 337.456L432.325 402.992C432.325 416.469 421.226 427.568 407.749 427.568L342.213 427.568C340.627 427.568 339.306 426.247 339.306 424.661 339.306 423.076 340.627 421.754 342.213 421.754L407.749 421.754C418.055 421.754 426.775 413.298 426.775 402.728L426.775 337.192C426.775 335.871 427.832 334.549 429.418 334.549Z" fill="#C6FF00" fill-rule="evenodd" transform="matrix(1 0 0 1.00087 311 77.2645)"/><path d="M600.92 314.202 535.913 327.943 566.039 470.113 631.046 456.372 600.92 314.202Z" fill="#FFFFFF" transform="matrix(1 0 0 1.00087 311 77.2645)"/><path d="M532.742 325.829 603.035 310.766 634.217 458.222 563.924 473.284 532.742 325.829ZM539.349 330.057 568.417 466.678 627.875 453.994 598.806 317.373 539.349 330.057Z" fill="#CEEAD6" fill-rule="evenodd" transform="matrix(1 0 0 1.00087 311 77.2645)"/><path d="M572.909 380.794C565.246 389.779 556.79 391.893 551.24 391.893 549.126 391.893 547.276 393.743 547.541 395.593L576.609 533.006C580.573 552.297 599.335 564.453 618.626 560.753 638.445 556.79 651.129 537.499 646.901 517.944L617.04 377.359C617.04 377.095 616.776 376.831 616.776 376.566 609.377 365.203 585.594 365.996 572.909 380.794Z" fill="#4285F4" transform="matrix(1 0 0 1.00087 311 77.2645)"/><path d="M595.371 297.025 534.063 309.974C529.307 311.031 526.4 315.787 527.193 320.28 528.25 325.036 533.006 327.943 537.499 327.15L598.806 314.202C603.563 313.145 606.47 308.388 605.677 303.896 604.884 299.139 600.128 295.968 595.371 297.025Z" fill="#FFFFFF" transform="matrix(1 0 0 1.00087 311 77.2645)"/><path d="M534.592 312.88C531.421 313.673 529.307 316.844 530.1 320.015 530.892 323.186 534.063 325.3 537.235 324.508L598.542 311.559C601.713 310.766 603.827 307.595 603.035 304.424 602.242 301.253 599.071 299.139 595.9 299.932L534.592 312.88ZM524.55 321.072C523.229 314.73 527.193 308.652 533.535 307.331L594.843 294.382C601.185 293.061 607.263 297.025 608.584 303.367 609.905 309.709 605.941 315.787 599.599 317.108L538.292 330.057C531.949 331.378 525.871 327.414 524.55 321.072Z" fill="#CEEAD6" fill-rule="evenodd" transform="matrix(1 0 0 1.00087 311 77.2645)"/><path d="M298.082 510.28C298.082 509.488 298.082 508.959 298.082 508.166L266.9 526.136C257.915 531.421 246.288 528.25 241.002 519.265 235.717 510.28 238.888 498.653 247.873 493.368L283.284 473.02C273.506 462.45 259.236 455.843 243.645 455.843 224.354 455.843 207.178 465.885 197.664 481.212L86.6763 481.212 86.6763 539.084 197.664 539.084C207.178 554.411 224.354 564.453 243.645 564.453 273.77 564.717 298.082 540.406 298.082 510.28Z" fill="#34A853" fill-rule="evenodd" transform="matrix(1 0 0 1.00087 311 77.2645)"/><path d="M10.5703 510.28C10.5703 486.233 30.1253 466.678 54.1727 466.678 78.2201 466.678 97.7751 486.233 97.7751 510.28 97.7751 534.328 78.2201 553.883 54.1727 553.883 30.1253 553.883 10.5703 534.328 10.5703 510.28ZM54.1727 476.984C35.6747 476.984 20.612 492.047 20.612 510.545 20.612 529.043 35.6747 544.105 54.1727 544.105 72.6707 544.105 87.7333 529.043 87.7333 510.545 87.4691 491.782 72.6707 476.984 54.1727 476.984Z" fill="#34A853" fill-rule="evenodd" transform="matrix(1 0 0 1.00087 311 77.2645)"/><path d="M102.003 510.28C102.003 508.695 103.324 507.373 104.91 507.373L202.685 507.373C204.271 507.373 205.592 508.695 205.592 510.28 205.592 511.866 204.271 513.187 202.685 513.187L104.91 513.187C103.324 513.187 102.003 511.866 102.003 510.28Z" fill="#CEEAD6" fill-rule="evenodd" transform="matrix(1 0 0 1.00087 311 77.2645)"/><path d="M98.5679 61.3076C97.7751 58.9293 94.3398 58.9293 93.8112 61.3076L87.9976 80.8626C87.4691 82.4482 86.1478 83.7695 84.5622 84.298L64.743 89.8474C62.3647 90.6402 62.3647 94.0755 64.743 94.604L84.298 100.418C85.8835 100.946 87.2048 102.267 87.7333 103.853L93.547 123.408C94.3398 125.786 97.7751 125.786 98.3036 123.408L104.117 103.853C104.646 102.267 105.967 100.946 107.553 100.418L127.108 94.604C129.486 93.8112 129.486 90.3759 127.108 89.8474L107.553 84.0337C105.967 83.5052 104.646 82.1839 104.117 80.5984L98.5679 61.3076Z" fill="#C6FF00" transform="matrix(1 0 0 1.00087 311 77.2645)"/><path d="M633.953 195.022C633.424 193.172 630.781 193.172 630.517 195.022L625.761 210.613C625.232 211.934 624.439 212.727 623.382 212.991L607.791 217.748C605.941 218.276 605.941 220.919 607.791 221.183L623.382 225.94C624.704 226.468 625.496 227.261 625.761 228.318L630.517 243.909C631.046 245.759 633.688 245.759 633.953 243.909L638.709 228.318C639.238 226.997 640.031 226.204 641.088 225.94L656.679 221.183C658.529 220.655 658.529 218.012 656.679 217.748L641.088 212.991C639.766 212.463 638.974 211.67 638.709 210.613L633.953 195.022Z" fill="#C6FF00" transform="matrix(1 0 0 1.00087 311 77.2645)"/><path d="M431.267 343.534C430.739 341.684 428.096 341.684 427.832 343.534L424.133 356.218C423.604 357.54 422.811 358.333 421.754 358.597L409.07 362.296C407.22 362.825 407.22 365.467 409.07 365.732L421.754 369.431C423.076 369.96 423.868 370.753 424.133 371.81L427.832 384.494C428.361 386.344 431.003 386.344 431.267 384.494L434.967 371.81C435.496 370.488 436.288 369.696 437.345 369.431L450.03 365.732C451.88 365.203 451.88 362.561 450.03 362.296L437.345 358.597C436.024 358.068 435.231 357.275 434.967 356.218L431.267 343.534Z" fill="#C6FF00" transform="matrix(1 0 0 1.00087 311 77.2645)"/><path d="M23.7831 369.431C23.2546 367.582 20.612 367.582 20.3478 369.431L16.6482 382.116C16.1197 383.437 15.3269 384.23 14.2699 384.494L1.32129 388.458C-0.528514 388.986-0.528514 391.629 1.32129 391.893L14.0056 395.593C15.3269 396.121 16.1197 396.914 16.3839 397.971L20.0835 410.655C20.612 412.505 23.2546 412.505 23.5189 410.655L27.2185 397.971C27.747 396.65 28.5398 395.857 29.5968 395.593L42.2811 391.893C44.1309 391.365 44.1309 388.722 42.2811 388.458L29.5968 384.758C28.2755 384.23 27.4827 383.437 27.2185 382.38L23.7831 369.431Z" fill="#C6FF00" transform="matrix(1 0 0 1.00087 311 77.2645)"/><path d="M190.794 93.0185C178.109 93.0185 166.218 90.6402 154.855 85.8835 143.492 81.1269 133.714 74.2562 125.258 65.8 116.802 57.3438 110.195 47.5663 105.439 36.2032 100.946 25.1044 98.3036 13.2129 98.3036 0.528514 98.3036 0.264257 98.0394 0 97.7751 0 97.5108 0 97.2466 0.264257 97.2466 0.528514 97.2466 13.2129 94.8683 25.1044 89.8474 36.4675 85.0908 47.8305 78.4843 57.608 70.0281 66.0643 61.5719 74.5205 51.7944 81.1269 40.4313 85.8835 29.0683 90.6402 17.441 93.0185 4.49237 93.0185 4.49237 93.2827 4.22811 93.547 4.22811 93.547 4.22811 93.547 4.49237 94.0755 4.75663 94.0755 17.441 94.0755 29.3325 96.4538 40.6956 101.475 52.0586 106.231 61.8361 112.838 70.2924 121.294 78.7486 129.75 85.355 139.528 90.1116 150.891 94.8683 162.254 97.5108 173.881 97.5108 186.83 97.5108 187.094 97.7751 187.358 98.0394 187.358 98.3036 187.358 98.5679 187.094 98.5679 186.83 98.5679 174.145 100.946 162.254 105.703 150.891 110.459 139.528 117.33 129.75 125.786 121.294 134.243 112.838 144.02 106.231 155.383 101.475 166.746 96.7181 178.373 94.0755 191.322 94.0755 191.586 94.0755 191.851 93.8112 191.851 93.547 191.322 93.2827 191.058 93.0185 190.794 93.0185Z" transform="matrix(1 0 0 1.00087 311 77.2645)"/><path d="M190.794 93.0185C178.109 93.0185 166.218 90.6402 154.855 85.8835 143.492 81.1269 133.714 74.2562 125.258 65.8 116.802 57.3438 110.195 47.5663 105.439 36.2032 100.946 25.1044 98.3036 13.2129 98.3036 0.528514 98.3036 0.264257 98.0394 0 97.7751 0 97.5108 0 97.2466 0.264257 97.2466 0.528514 97.2466 13.2129 94.8683 25.1044 89.8474 36.4675 85.0908 47.8305 78.4843 57.608 70.0281 66.0643 61.5719 74.5205 51.7944 81.1269 40.4313 85.8835 29.0683 90.6402 17.441 93.0185 4.49237 93.0185 4.49237 93.2827 4.22811 93.547 4.22811 93.547 4.22811 93.547 4.49237 94.0755 4.75663 94.0755 17.441 94.0755 29.3325 96.4538 40.6956 101.475 52.0586 106.231 61.8361 112.838 70.2924 121.294 78.7486 129.75 85.355 139.528 90.1116 150.891 94.8683 162.254 97.5108 173.881 97.5108 186.83 97.5108 187.094 97.7751 187.358 98.0394 187.358 98.3036 187.358 98.5679 187.094 98.5679 186.83 98.5679 174.145 100.946 162.254 105.703 150.891 110.459 139.528 117.33 129.75 125.786 121.294 134.243 112.838 144.02 106.231 155.383 101.475 166.746 96.7181 178.373 94.0755 191.322 94.0755 191.586 94.0755 191.851 93.8112 191.851 93.547 191.322 93.2827 191.058 93.0185 190.794 93.0185Z" fill="url(#fill4)" transform="matrix(1 0 0 1.00087 311 77.2645)"/></g></g></g></g></svg>