<svg xmlns="http://www.w3.org/2000/svg" width="24" height="24" viewBox="0 0 20 20"><g fill="none"><path fill="url(#fluentColorCode200)" d="M12.859 2.567a1 1 0 0 1 .574 1.292l-5 13a1 1 0 1 1-1.866-.718l5-13a1 1 0 0 1 1.292-.574"/><path fill="url(#fluentColorCode201)" d="M6.15 5.74a1 1 0 0 1 .11 1.41L3.816 10l2.442 2.85a1 1 0 0 1-1.518 1.3l-3-3.5a1 1 0 0 1 0-1.3l3-3.5a1 1 0 0 1 1.41-.11"/><path fill="url(#fluentColorCode202)" d="M13.74 7.15a1 1 0 0 1 1.52-1.3l3 3.5a1 1 0 0 1 0 1.3l-3 3.5a1 1 0 0 1-1.52-1.3L16.184 10z"/><defs><linearGradient id="fluentColorCode200" x1="2" x2="19" y1="1.5" y2="18" gradientUnits="userSpaceOnUse"><stop stop-color="#c76efb"/><stop offset="1" stop-color="#8b52f4"/></linearGradient><linearGradient id="fluentColorCode201" x1="2" x2="19" y1="1.5" y2="18" gradientUnits="userSpaceOnUse"><stop stop-color="#c76efb"/><stop offset="1" stop-color="#8b52f4"/></linearGradient><linearGradient id="fluentColorCode202" x1="2" x2="19" y1="1.5" y2="18" gradientUnits="userSpaceOnUse"><stop stop-color="#c76efb"/><stop offset="1" stop-color="#8b52f4"/></linearGradient></defs></g></svg>