<svg xmlns="http://www.w3.org/2000/svg" width="24" height="24" viewBox="0 0 24 24"><path fill="currentColor" fill-rule="evenodd" d="M9 4a.5.5 0 0 0 0 1h1c.289 0 .534.281.495.568l-.75 5.5a.5.5 0 0 1-.425.427c-1.352.193-2.286 1.247-2.678 2.505h10.716c-.392-1.258-1.327-2.312-2.679-2.505a.5.5 0 0 1-.425-.427l-.75-5.5A.516.516 0 0 1 14 5h1a.5.5 0 0 0 0-1zm-1.5.5A1.5 1.5 0 0 1 9 3h6a1.5 1.5 0 0 1 0 3h-.427l.624 4.577c1.826.441 2.938 2.05 3.293 3.825A.505.505 0 0 1 18 15H6a.505.505 0 0 1-.49-.598c.355-1.775 1.466-3.384 3.293-3.825L9.427 6H9a1.5 1.5 0 0 1-1.5-1.5M12 16a.5.5 0 0 1 .5.5v4a.5.5 0 0 1-1 0v-4a.5.5 0 0 1 .5-.5" clip-rule="evenodd"/></svg>