<svg width="200" height="200" xmlns="http://www.w3.org/2000/svg" style="background: transparent;">
  <!-- 外层齿轮形状 -->
  <path d="M100,10 
           A90,90 0 0,1 190,100 
           A90,90 0 0,1 100,190 
           A90,90 0 0,1 10,100 
           A90,90 0 0,1 100,10 
           M100,30 
           A70,70 0 0,0 30,100 
           A70,70 0 0,0 100,170 
           A70,70 0 0,0 170,100 
           A70,70 0 0,0 100,30 Z" 
        fill="#000000" />
  
  <!-- 齿轮上的小圆孔 -->
  <circle cx="100" cy="30" r="5" fill="#ffffff"/>
  <circle cx="170" cy="100" r="5" fill="#ffffff"/>
  <circle cx="100" cy="170" r="5" fill="#ffffff"/>
  <circle cx="30" cy="100" r="5" fill="#ffffff"/>

  <!-- "clap" 文字 -->
  <text x="50" y="120" font-family="Arial, sans-serif" font-size="50" font-weight="bold" fill="#ffffff">
    clap
  </text>
</svg>